<svg xmlns="http://www.w3.org/2000/svg" width="50" height="50" viewBox="0 0 50 50" fill="none">
  <path d="M31.875 26.375H26.375V31.875H23.625V26.375H18.125V23.625H23.625V18.125H26.375V23.625H31.875V26.375ZM25 11.25C23.1943 11.25 21.4063 11.6057 19.7381 12.2967C18.0699 12.9877 16.5541 14.0005 15.2773 15.2773C12.6987 17.8559 11.25 21.3533 11.25 25C11.25 28.6467 12.6987 32.1441 15.2773 34.7227C16.5541 35.9995 18.0699 37.0123 19.7381 37.7033C21.4063 38.3943 23.1943 38.75 25 38.75C28.6467 38.75 32.1441 37.3013 34.7227 34.7227C37.3013 32.1441 38.75 28.6467 38.75 25C38.75 23.1943 38.3943 21.4063 37.7033 19.7381C37.0123 18.0699 35.9995 16.5541 34.7227 15.2773C33.4459 14.0005 31.9301 12.9877 30.2619 12.2967C28.5937 11.6057 26.8057 11.25 25 11.25Z" fill="white"/>
</svg>