<svg width="40" height="40" viewBox="0 0 40 40" fill="none" xmlns="http://www.w3.org/2000/svg">
<path d="M20 9C21.4587 9 22.8576 9.57946 23.8891 10.6109C24.9205 11.6424 25.5 13.0413 25.5 14.5C25.5 15.9587 24.9205 17.3576 23.8891 18.3891C22.8576 19.4205 21.4587 20 20 20C18.5413 20 17.1424 19.4205 16.1109 18.3891C15.0795 17.3576 14.5 15.9587 14.5 14.5C14.5 13.0413 15.0795 11.6424 16.1109 10.6109C17.1424 9.57946 18.5413 9 20 9ZM20 22.75C26.0775 22.75 31 25.2113 31 28.25V31H9V28.25C9 25.2113 13.9225 22.75 20 22.75Z" fill="white"/>
</svg>
