<svg xmlns="http://www.w3.org/2000/svg" width="40" height="40" viewBox="0 0 40 40" fill="none">
  <path d="M17.9429 12C19.519 12 21.0306 12.6261 22.1451 13.7406C23.2596 14.8551 23.8857 16.3667 23.8857 17.9429C23.8857 19.4149 23.3463 20.768 22.4594 21.8103L22.7063 22.0571H23.4286L28 26.6286L26.6286 28L22.0571 23.4286V22.7063L21.8103 22.4594C20.768 23.3463 19.4149 23.8857 17.9429 23.8857C16.3667 23.8857 14.8551 23.2596 13.7406 22.1451C12.6261 21.0306 12 19.519 12 17.9429C12 16.3667 12.6261 14.8551 13.7406 13.7406C14.8551 12.6261 16.3667 12 17.9429 12ZM17.9429 13.8286C15.6571 13.8286 13.8286 15.6571 13.8286 17.9429C13.8286 20.2286 15.6571 22.0571 17.9429 22.0571C20.2286 22.0571 22.0571 20.2286 22.0571 17.9429C22.0571 15.6571 20.2286 13.8286 17.9429 13.8286Z" fill="#54007B"/>
</svg>