<svg xmlns="http://www.w3.org/2000/svg" width="50" height="50" viewBox="0 0 50 50" fill="none">
  <path d="M25.0031 29.8125C23.691 29.8125 22.4325 29.3055 21.5047 28.403C20.5769 27.5004 20.0556 26.2764 20.0556 25C20.0556 23.7236 20.5769 22.4996 21.5047 21.597C22.4325 20.6945 23.691 20.1875 25.0031 20.1875C26.3153 20.1875 27.5737 20.6945 28.5015 21.597C29.4294 22.4996 29.9506 23.7236 29.9506 25C29.9506 26.2764 29.4294 27.5004 28.5015 28.403C27.5737 29.3055 26.3153 29.8125 25.0031 29.8125ZM35.506 26.3338C35.5625 25.8938 35.6049 25.4537 35.6049 25C35.6049 24.5463 35.5625 24.0925 35.506 23.625L38.4886 21.3837C38.7572 21.1775 38.8279 20.8062 38.6582 20.5037L35.8311 15.7463C35.6615 15.4437 35.2798 15.32 34.9688 15.4438L31.449 16.8188C30.714 16.2825 29.9506 15.815 29.0601 15.4713L28.5371 11.8275C28.4805 11.4975 28.1837 11.25 27.8303 11.25H22.176C21.8226 11.25 21.5257 11.4975 21.4692 11.8275L20.9462 15.4713C20.0556 15.815 19.2923 16.2825 18.5572 16.8188L15.0374 15.4438C14.7264 15.32 14.3448 15.4437 14.1752 15.7463L11.348 20.5037C11.1642 20.8062 11.2491 21.1775 11.5176 21.3837L14.5003 23.625C14.4437 24.0925 14.4013 24.5463 14.4013 25C14.4013 25.4537 14.4437 25.8938 14.5003 26.3338L11.5176 28.6163C11.2491 28.8225 11.1642 29.1938 11.348 29.4963L14.1752 34.2537C14.3448 34.5562 14.7264 34.6663 15.0374 34.5563L18.5572 33.1675C19.2923 33.7175 20.0556 34.185 20.9462 34.5288L21.4692 38.1725C21.5257 38.5025 21.8226 38.75 22.176 38.75H27.8303C28.1837 38.75 28.4805 38.5025 28.5371 38.1725L29.0601 34.5288C29.9506 34.1713 30.714 33.7175 31.449 33.1675L34.9688 34.5563C35.2798 34.6663 35.6615 34.5562 35.8311 34.2537L38.6582 29.4963C38.8279 29.1938 38.7572 28.8225 38.4886 28.6163L35.506 26.3338Z" fill="white"/>
</svg>